<?xml version="1.0" encoding="utf-8"?>
<!-- Generator: Adobe Illustrator 25.2.3, SVG Export Plug-In . SVG Version: 6.00 Build 0)  -->
<svg version="1.1" id="Layer_1" xmlns="http://www.w3.org/2000/svg" xmlns:xlink="http://www.w3.org/1999/xlink" x="0px" y="0px"
	 viewBox="0 0 333 333" style="enable-background:new 0 0 333 333;" xml:space="preserve">
<style type="text/css">
	.Drop_x0020_Shadow{fill:none;}
	.Outer_x0020_Glow_x0020_5_x0020_pt{fill:none;}
	.Blue_x0020_Neon{fill:none;stroke:#8AACDA;stroke-width:7;stroke-linecap:round;stroke-linejoin:round;}
	.Chrome_x0020_Highlight{fill:url(#SVGID_1_);stroke:#FFFFFF;stroke-width:0.3629;stroke-miterlimit:1;}
	.Jive_GS{fill:#FFDD00;}
	.Alyssa_GS{fill:#A6D0E4;}
	.st0{fill:#16213E;}
	.st1{fill:#FFAE6D;}
</style>
<linearGradient id="SVGID_1_" gradientUnits="userSpaceOnUse" x1="-89" y1="-90" x2="-89" y2="-91">
	<stop  offset="0" style="stop-color:#656565"/>
	<stop  offset="0.618" style="stop-color:#1B1B1B"/>
	<stop  offset="0.6292" style="stop-color:#545454"/>
	<stop  offset="0.9831" style="stop-color:#3E3E3E"/>
</linearGradient>
<g>
	<path class="st0" d="M299,38.8L299,38.8c45.6,79,45.6,176.4,0,255.4l0,0c-13.9,24-39.5,38.8-67.2,38.8h0
		c-91.3,0-175.6-48.7-221.2-127.7l0,0c-13.9-24-13.9-53.6,0-77.6l0,0C56.3,48.7,140.6,0,231.8,0h0C259.6,0,285.2,14.8,299,38.8z"/>
	<g>
		<path class="st1" d="M238.1,247H123.4V79.7h114.7v33.5h-81.2v33.5h55v33.5h-55v33.4h81.2V247z"/>
	</g>
</g>
</svg>
